<?xml version="1.0" standalone="no"?>
<!DOCTYPE svg PUBLIC "-//W3C//DTD SVG 1.1//EN" "http://www.w3.org/Graphics/SVG/1.1/DTD/svg11.dtd">
<svg xmlns="http://www.w3.org/2000/svg">
<metadata>Generated by Fontastic.me</metadata>
<defs>
<font id="sisdai-pictogramas" horiz-adv-x="512">
<font-face font-family="sisdai-pictogramas" units-per-em="512" ascent="480" descent="-32"/>
<missing-glyph horiz-adv-x="512" />

<glyph glyph-name="actualizar" unicode="&#97;" d="M432 103l-32 32 0 41-32 0 0-55 41-41z m-48-87c-62 0-112 50-112 112 0 62 50 112 112 112 62 0 112-50 112-112 0-62-50-112-112-112z m0 192c-44 0-80-36-80-80 0-44 36-80 80-80 44 0 80 36 80 80 0 44-36 80-80 80z m-128-144c-106 0-192 86-192 192l-32 0c0-124 100-224 224-224z m-64 320l-79 0c53 59 137 80 212 51 74-28 123-99 123-179l32 0c0 91-55 173-139 208-85 34-182 14-245-52l0 68-32 0 0-128 128 0z"/>
<glyph glyph-name="agregar" unicode="&#98;" d="M272 272l0 112-32 0 0-112-112 0 0-32 112 0 0-112 32 0 0 112 112 0 0 32z"/>
<glyph glyph-name="angulo-derecho" unicode="&#100;" d="M352 256l-160-160-22 22 137 138-137 138 22 22z"/>
<glyph glyph-name="angulo-doble-abajo" unicode="&#101;" d="M251 128l-112 112 22 22 90-89 89 89 23-22z m0 128l-112 112 22 22 90-89 89 89 23-22z"/>
<glyph glyph-name="angulo-doble-arriba" unicode="&#102;" d="M251 390l112-112-23-22-89 90-90-90-22 22z m0-128l112-112-23-22-89 90-90-90-22 22z"/>
<glyph glyph-name="angulo-doble-derecha" unicode="&#103;" d="M384 251l-112-112-22 22 89 90-89 89 22 23z m-128 0l-112-112-22 22 89 90-89 89 22 23z"/>
<glyph glyph-name="angulo-doble-izquierda" unicode="&#104;" d="M128 261l112 112 22-22-89-90 89-89-22-23z m128 0l112 112 22-22-89-90 89-89-22-23z"/>
<glyph glyph-name="angulo-izquierdo" unicode="&#105;" d="M160 256l160 160 22-22-137-138 137-138-22-22z"/>
<glyph glyph-name="aprobado" unicode="&#106;" d="M197 128l0 0 234 234-23 22-211-211-89 89-23-22"/>
<glyph glyph-name="archivo-descargar" unicode="&#107;" d="M416 128l0-64-320 0 0 64-32 0 0-64c0-18 14-32 32-32l320 0c18 0 32 14 32 32l0 64z m0 160l-23 23-121-122 0 291-32 0 0-291-121 122-23-23 160-160z"/>
<glyph glyph-name="archivo-subir" unicode="&#108;" d="M96 224l23-23 121 122 0-291 32 0 0 291 121-122 23 23-160 160z m0 160l0 64 320 0 0-64 32 0 0 64c0 18-14 32-32 32l-320 0c-18 0-32-14-32-32l0-64z"/>
<glyph glyph-name="arrastrar" unicode="&#109;" d="M64 192l176 0 0-99-41 42-23-23 80-80 80 80-23 23-41-42 0 99 176 0 0 32-384 0z m208 128l0 99 41-42 23 23-80 80-80-80 23-23 41 42 0-99-176 0 0-32 384 0 0 32z"/>
<glyph glyph-name="ayuda" unicode="&#110;" d="M256 480c-124 0-224-100-224-224 0-124 100-224 224-224 124 0 224 100 224 224 0 124-100 224-224 224z m0-416c-106 0-192 86-192 192 0 106 86 192 192 192 106 0 192-86 192-192 0-106-86-192-192-192z m24 72c0-13-11-24-24-24-13 0-24 11-24 24 0 13 11 24 24 24 13 0 24-11 24-24z m-8 248l-24 0c-19 0-37-8-51-21-13-14-21-32-21-51l0-8 32 0 0 8c0 22 18 40 40 40l24 0c22 0 40-18 40-40 0-22-18-40-40-40l-32 0 0-72 32 0 0 40c40 0 72 32 72 72 0 40-32 72-72 72z"/>
<glyph glyph-name="buscar" unicode="&#111;" d="M464 71l-121 120c61 73 54 181-16 245-69 65-178 63-245-4-67-67-70-175-6-246 63-70 171-78 244-17l121-121 23 23z m-400 233c0 80 64 144 144 144 80 0 144-64 144-144 0-80-64-144-144-144-79 0-144 65-144 144z"/>
<glyph glyph-name="calendario" unicode="&#112;" d="M416 448l-64 0 0 32-32 0 0-32-128 0 0 32-32 0 0-32-64 0c-18 0-32-14-32-32l0-320c0-18 14-32 32-32l320 0c18 0 32 14 32 32l0 320c0 18-14 32-32 32z m0-352l-320 0 0 224 320 0z m0 256l-320 0 0 64 64 0 0-32 32 0 0 32 128 0 0-32 32 0 0 32 64 0z"/>
<glyph glyph-name="cambio-tipografia" unicode="&#113;" d="M124 368l-64 0c-17 0-32-14-32-32l0-192 32 0 0 80 64 0 0-80 32 0 0 192c0 18-14 32-32 32m-64-32l64 0 0-80-64 0z m224-192l84 224 36 0 83-224-33 0-17 49-102 0-17-49z m61 76l82 0-41 116z m-163-120l83 312 31-8-83-312z"/>
<glyph glyph-name="capa-lineas" unicode="&#114;" d="M160 192c0-18-14-32-32-32-18 0-32 14-32 32 0 18 14 32 32 32 18 0 32-14 32-32z m192-112c0-18-14-32-32-32-18 0-32 14-32 32 0 18 14 32 32 32 18 0 32-14 32-32z m-256-16c0-18-14-32-32-32-18 0-32 14-32 32 0 18 14 32 32 32 18 0 32-14 32-32z m160 304c0-18-14-32-32-32-18 0-32 14-32 32 0 18 14 32 32 32 18 0 32-14 32-32z m160-96c0-18-14-32-32-32-18 0-32 14-32 32 0 18 14 32 32 32 18 0 32-14 32-32z m64 176c0-18-14-32-32-32-18 0-32 14-32 32 0 18 14 32 32 32 18 0 32-14 32-32z m-427-370l65 125 28-15-65-124z m81 132l180-104-16-28-180 104z m169-136l-98 290 30 10 99-289z m-70 308l161-93-16-28-161 93z m134-114l68 179 30-11-68-179z"/>
<glyph glyph-name="capa-puntos" unicode="&#115;" d="M160 376c0-22-18-40-40-40-22 0-40 18-40 40 0 22 18 40 40 40 22 0 40-18 40-40z m272-304c0-22-18-40-40-40-22 0-40 18-40 40 0 22 18 40 40 40 22 0 40-18 40-40z m-192 224c0-22-18-40-40-40-22 0-40 18-40 40 0 22 18 40 40 40 22 0 40-18 40-40z m96-48c0-22-18-40-40-40-22 0-40 18-40 40 0 22 18 40 40 40 22 0 40-18 40-40z m-80 192c0-22-18-40-40-40-22 0-40 18-40 40 0 22 18 40 40 40 22 0 40-18 40-40z m144-272c0-22-18-40-40-40-22 0-40 18-40 40 0 22 18 40 40 40 22 0 40-18 40-40z m-64 192c0-22-18-40-40-40-22 0-40 18-40 40 0 22 18 40 40 40 22 0 40-18 40-40z m-192-224c0-22-18-40-40-40-22 0-40 18-40 40 0 22 18 40 40 40 22 0 40-18 40-40z m304 128c0-22-18-40-40-40-22 0-40 18-40 40 0 22 18 40 40 40 22 0 40-18 40-40z m-304-16c0-22-18-40-40-40-22 0-40 18-40 40 0 22 18 40 40 40 22 0 40-18 40-40z m176-160c0-22-18-40-40-40-22 0-40 18-40 40 0 22 18 40 40 40 22 0 40-18 40-40z m-80 80c0-22-18-40-40-40-22 0-40 18-40 40 0 22 18 40 40 40 22 0 40-18 40-40z m192 208c0-22-18-40-40-40-22 0-40 18-40 40 0 22 18 40 40 40 22 0 40-18 40-40z"/>
<glyph glyph-name="casilla" unicode="&#116;" d="M416 448l-320 0c-18 0-32-14-32-32l0-320c0-18 14-32 32-32l320 0c18 0 32 14 32 32l0 320c0 18-14 32-32 32z m-320-352l0 320 320 0 0-320z"/>
<glyph glyph-name="casilla-verificada" unicode="&#117;" d="M416 448l-320 0c-18 0-32-14-32-32l0-320c0-18 14-32 32-32l320 0c18 0 32 14 32 32l0 320c0 18-14 32-32 32z m-320-352l0 320 320 0 0-320z m128 72l-80 79 25 25 55-54 119 118 25-25z"/>
<glyph glyph-name="cerrar" unicode="&#118;" d="M384 362l-22 22-106-106-106 106-22-22 106-106-106-106 22-22 106 106 106-106 22 22-106 106z"/>
<glyph glyph-name="colaborar" unicode="&#119;" d="M98 174l0 16-33 0 0-16c0-63 51-114 115-114l49 0 0 32-49 0c-45 0-82 37-82 82z m290 158l0-16 33 0 0 16c0 63-51 115-114 115l-49 0 0-33 49 0c45 0 81-37 81-82z m-208 2l-98 0c-27 0-49-22-49-49l0-32 32 0 0 32c0 9 8 17 17 17l98 0c9 0 16-8 16-17l0-32 33 0 0 32c0 27-22 49-49 49z m-49 15c36 0 65 29 65 65 0 36-29 65-65 65-36 0-66-29-66-65 0-36 30-65 66-65z m0 98c18 0 32-15 32-33 0-18-14-33-32-33-18 0-33 15-33 33 0 18 15 33 33 33z m305-338l-98 0c-27 0-49-22-49-49l0-33 33 0 0 33c0 9 7 16 16 16l98 0c9 0 16-7 16-16l0-33 33 0 0 33c0 27-22 49-49 49z m-114 80c0-37 29-66 65-66 36 0 65 29 65 66 0 36-29 65-65 65-36 0-65-29-65-65z m98 0c0-18-15-33-33-33-18 0-33 15-33 33 0 18 15 32 33 32 18 0 33-14 33-32z"/>
<glyph glyph-name="compartir" unicode="&#120;" d="M368 192c-24 0-47-11-62-30l-117 73c4 14 4 28 0 42l117 73c24-30 67-38 101-19 33 19 49 60 36 96-13 37-51 59-89 52-38-7-66-40-66-79 0-7 1-14 3-21l-117-73c-21 26-57 37-89 26-32-12-53-42-53-76 0-34 21-64 53-76 32-11 68 0 89 26l117-73c-2-7-3-14-3-21 0-44 36-80 80-80 44 0 80 36 80 80 0 44-36 80-80 80z m0 256c27 0 48-21 48-48 0-27-21-48-48-48-27 0-48 21-48 48 0 26 22 48 48 48z m-256-240c-27 0-48 21-48 48 0 27 21 48 48 48 27 0 48-21 48-48 0-26-22-48-48-48z m256-144c-27 0-48 21-48 48 0 27 21 48 48 48 27 0 48-21 48-48 0-26-22-48-48-48z"/>
<glyph glyph-name="contraste" unicode="&#121;" d="M470 323c-35 112-151 179-266 153-115-27-190-137-172-254 17-116 122-200 239-191 118 9 209 107 209 225 0 23-3 45-10 67m-406-67c0 106 86 192 192 192l0-384c-106 0-192 86-192 192"/>
<glyph glyph-name="control-comenzar" unicode="&#122;" d="M112 64c-9 0-16 7-16 16l0 352c0 6 3 11 8 14 5 3 11 3 16 0l320-176c5-3 8-8 8-14 0-6-3-11-8-14l-320-176c-3-1-5-2-8-2z m16 341l0-298 271 149z"/>
<glyph glyph-name="control-detener" unicode="&#65;" d="M384 384l0-256-256 0 0 256 256 0m0 32l-256 0c-18 0-32-14-32-32l0-256c0-18 14-32 32-32l256 0c18 0 32 14 32 32l0 256c0 18-14 32-32 32z"/>
<glyph glyph-name="control-final" unicode="&#66;" d="M80 64c-9 0-16 7-16 16l0 352c0 6 3 11 8 14 5 3 11 3 16 0l304-176c5-3 8-8 8-14 0-6-3-11-8-14l-304-176c-2-1-5-2-8-2z m16 340l0-296 256 148z m352 44l32 0 0-384-32 0z"/>
<glyph glyph-name="control-inicio" unicode="&#67;" d="M432 64c-3 0-6 1-8 2l-304 176c-5 3-8 8-8 14 0 6 3 11 8 14l304 176c5 3 11 3 16 0 5-3 8-8 8-14l0-352c0-9-7-16-16-16z m-272 192l256-148 0 296z m-128 192l32 0 0-384-32 0z"/>
<glyph glyph-name="control-pausa" unicode="&#68;" d="M192 384l0-256-64 0 0 256 64 0m0 32l-64 0c-18 0-32-14-32-32l0-256c0-18 14-32 32-32l64 0c18 0 32 14 32 32l0 256c0 18-14 32-32 32z m192-32l0-256-64 0 0 256 64 0m0 32l-64 0c-18 0-32-14-32-32l0-256c0-18 14-32 32-32l64 0c18 0 32 14 32 32l0 256c0 18-14 32-32 32z"/>
<glyph glyph-name="copiar" unicode="&#69;" d="M448 352l0-288-288 0 0 288 288 0m0 32l-288 0c-18 0-32-14-32-32l0-288c0-18 14-32 32-32l288 0c18 0 32 14 32 32l0 288c0 18-14 32-32 32z m-384-160l-32 0 0 224c0 18 14 32 32 32l224 0 0-32-224 0z"/>
<glyph glyph-name="documento" unicode="&#70;" d="M411 363l-112 112c-3 3-7 5-11 5l-160 0c-18 0-32-14-32-32l0-384c0-18 14-32 32-32l256 0c18 0 32 14 32 32l0 288c0 4-2 8-5 11z m-123 79l90-90-90 0z m96-378l-256 0 0 384 128 0 0-96c0-18 14-32 32-32l96 0z"/>
<glyph glyph-name="documento-csv" unicode="&#71;" d="M347 363l-112 112c-3 3-7 5-11 5l-160 0c-18 0-32-14-32-32l0-384c0-17 13-31 30-32l290 0 0 32-288 0 0 384 128 0 0-96c0-18 14-32 32-32l128 0 0 32c0 4-2 8-5 11z m-123-11l0 90 90-90z m-32-112l0 32-64 0c-18 0-32-14-32-32l0-101c0-7 3-14 8-19 5-5 12-8 19-8l71 0 0 32-64 0 0 96 64 0z m272 32l-34 0-30-114-30 114-34 0 43-160 42 0z m-171-160l-69 0 0 32 64 0 0 32-32 0c-18 0-32 14-32 32l0 37c0 7 3 14 8 19 5 5 12 8 19 8l69 0 0-32-64 0 0-32 32 0c18 0 32-14 32-32l0-37c0-7-3-14-8-19-5-5-12-8-19-8z"/>
<glyph glyph-name="documento-geojson" unicode="&#72;" d="M347 363l-112 112c-3 3-7 5-11 5l-160 0c-18 0-32-14-32-32l0-384c0-17 13-31 30-32l34 0 0 32-32 0 0 384 128 0 0-96c0-18 14-32 32-32l128 0 0 32c0 4-2 8-5 11z m-123-11l0 90 90-90z m-51-320l-32 0c-11 0-19 9-19 19l0 29 24 0 0-24 24 0 0 96 24 0 0-101c-1-10-9-19-20-19z m192 0l-32 0c-11 0-19 9-19 19l0 80c0 11 8 19 19 19l32 0c10 0 19-8 19-19l0-80c0-10-9-19-19-19z m-29 24l24 0 0 72-24 0z m-67-24l-53 0 0 24 48 0 0 24-24 0c-13 0-24 11-24 24l0 29c0 10 9 19 19 19l53 0 0-24-48 0 0-24 24 0c13 0 24-11 24-24l0-29c0-10-9-19-19-19z m96 144l-32 0c-11 0-19 9-19 19l0 80c0 11 8 19 19 19l32 0c10 0 19-8 19-19l0-80c0-10-9-19-19-19z m-29 24l24 0 0 72-24 0z m144-48l0-120-24 0-24 72 0-72-24 0 0 120 24 0 24-72 0 72z m-288 120l0 24-48 0c-13 0-24-11-24-24l0-77c0-10 9-19 19-19l32 0c11 0 19 9 19 19l0 53-35 0 0-24 13 0 0-24-24 0 0 72z m96 0l0 24-72 0 0-120 72 0 0 24-48 0 0 24 35 0 0 24-35 0 0 24z"/>
<glyph glyph-name="documento-geopaquete" unicode="&#73;" d="M347 363l-112 112c-3 3-7 5-11 5l-160 0c-18 0-32-14-32-32l0-384c0-17 13-31 30-32l162 0 0 32-160 0 0 384 128 0 0-96c0-18 14-32 32-32l128 0 0 32c0 4-2 8-5 11z m-123-11l0 90 90-90z m248-104l-106 62c-3 0-4 2-8 2-2 0-5 0-8-2l-105-62c-5-3-8-9-8-14l0-124c0-5 3-11 8-14l105-62c4 0 5-2 8-2 3 0 6 0 8 2l106 62c5 3 8 9 8 14l0 124c0 5-3 11-8 14z m-203-128l0 85 72-42 0-85z m161 114l-73-44-74 44 74 43z m-56-157l0 85 72 41 0-85z"/>
<glyph glyph-name="documento-pdf" unicode="&#74;" d="M428 243l0 24-71 0 0-119 24 0 0 47 35 0 0 24-35 0 0 24z m-127-95l-48 0 0 119 48 0c19 0 35-16 35-36l0-48c0-19-16-35-35-35z m-24 23l24 0c6 0 12 6 12 12l0 48c0 7-6 12-12 12l-24 0z m-68 96l-60 0 0-119 24 0 0 35 36 0c13 1 23 11 24 24l0 36c0 13-11 24-24 24z m-36-60l0 36 36 0 0-36z m232 92l0 64c0 4-1 8-4 11l-112 112c-3 3-7 5-12 5l-160 0c-17 0-32-15-32-32l0-384c0-18 15-32 32-32l256 0 0 32-256 0 0 384 128 0 0-96c0-18 15-32 32-32l96 0 0-32z m-128 64l0 89 90-89z"/>
<glyph glyph-name="documento-png" unicode="&#75;" d="M347 363l-112 112c-3 3-7 5-11 5l-160 0c-18 0-32-14-32-32l0-384c0-17 13-31 30-32l290 0 0 32-288 0 0 384 128 0 0-96c0-18 14-32 32-32l128 0 0 32c0 4-2 8-5 11z m-123-11l0 90 90-90z m-48-80l-80 0 0-160 32 0 0 48 48 0c18 0 32 14 32 32l0 48c0 18-14 32-32 32z m-48-80l0 48 48 0 0-48z m208 80l0-160-32 0-32 96 0-96-32 0 0 160 32 0 32-96 0 96z m128-32l0 32-64 0c-18 0-32-14-32-32l0-101c0-7 3-14 8-19 5-5 12-8 19-8l43 0c8 0 15 3 20 8 5 5 8 12 8 19l0 69-48 0 0-32 16 0 0-32-32 0 0 96z"/>
<glyph glyph-name="documento-ppt" unicode="&#76;" d="M405 299l0 64c0 4-1 8-4 11l-112 112c-3 3-7 5-12 5l-160 0c-17 0-32-15-32-32l0-384c0-18 15-32 32-32l256 0 0 32-256 0 0 384 128 0 0-96c0-18 15-32 32-32l96 0 0-32z m-128 64l0 89 90-89z m-67-96l-61 0 0-122 25 0 0 36 36 0c14 0 25 11 25 25l0 36c0 14-11 25-25 25z m-36-61l0 36 36 0 0-36z m143 61l-61 0 0-122 24 0 0 36 37 0c13 0 24 11 24 25l0 36c0 14-11 25-24 25z m-37-61l0 36 37 0 0-36z m83 37l32 0 0-98 21 0 0 98 32 0 0 24-85 0z"/>
<glyph glyph-name="documento-word" unicode="&#77;" d="M453 192l-15-138-22 138-32 0-22-138-15 138-27 0 22-160 36 0 22 134 22-134 36 0 22 160z m-42 171l-112 112c-3 3-7 5-11 5l-160 0c-18 0-32-14-32-32l0-384c0-18 14-32 32-32l128 0 0 32-128 0 0 384 128 0 0-96c0-18 14-32 32-32l96 0 0-64 32 0 0 96c0 4-2 8-5 11z m-123 78l89-89-89 0z"/>
<glyph glyph-name="editar" unicode="&#78;" d="M32 96l448 0 0-32-448 0z m374 272c7 6 10 14 10 22 0 9-3 17-10 23l-57 57c-6 7-14 10-23 10-8 0-16-3-22-10l-240-240 0-102 102 0z m-80 80l58-58-48-48-58 58z m-230-288l0 58 160 160 58-58-160-160z"/>
<glyph glyph-name="eliminar" unicode="&#79;" d="M192 320l32 0 0-192-32 0z m96 0l32 0 0-192-32 0z m-224 96l0-32 32 0 0-320c0-18 14-32 32-32l256 0c18 0 32 14 32 32l0 320 32 0 0 32z m64-352l0 320 256 0 0-320z m64 416l128 0 0-32-128 0z"/>
<glyph glyph-name="enlace-subrayado" unicode="&#80;" d="M264 200c-34-1-64 20-77 51-13 32-6 68 18 92l22-22c-20-21-20-54 0-74 21-21 54-21 74 0l97 96c20 21 20 54 0 74-21 20-54 20-74 0l-23 23c33 32 86 32 119-1 32-33 33-85 0-118l-96-97c-16-16-37-25-60-24m-135-39c-34 0-64 20-77 52-14 31-6 68 18 92l96 96c33 33 86 33 119 0 33-33 33-86 0-119l-22 23c20 20 19 53-1 73-20 20-53 20-73 0l-97-96c-20-20-20-53 0-74 21-20 54-20 74 0l23-22c-16-16-37-25-60-25m-39-71l320 0 0-32-320 0z"/>
<glyph glyph-name="estrella" unicode="&#81;" d="M256 408l44-90 8-16 16-2 98-14-70-69-12-12 3-16 17-98-88 46-16 7-15-8-88-45 16 98 3 16-12 12-71 70 99 14 16 2 7 16 45 89m0 72l-73-148-163-23 118-115-27-162 145 76 146-76-28 162 118 115-163 24z"/>
<glyph glyph-name="flecha-abajo-derecha" unicode="&#83;" d="M160 96l0 32 201 0-265 265 23 23 265-265 0 201 32 0 0-256z"/>
<glyph glyph-name="flecha-abajo-izquierda" unicode="&#84;" d="M352 96l0 32-201 0 265 265-23 23-265-265 0 201-32 0 0-256z"/>
<glyph glyph-name="flecha-arriba" unicode="&#85;" d="M256 448l-160-160 23-23 121 122 0-323 32 0 0 323 121-122 23 23z"/>
<glyph glyph-name="flecha-arriba-derecha" unicode="&#86;" d="M160 416l0-32 201 0-265-265 23-23 265 265 0-201 32 0 0 256z"/>
<glyph glyph-name="flecha-arriba-izquierda" unicode="&#87;" d="M352 416l0-32-201 0 265-265-23-23-265 265 0-201-32 0 0 256z"/>
<glyph glyph-name="flecha-derecha" unicode="&#88;" d="M288 416l-23-22 121-122-322 0 0-32 322 0-121-121 23-23 160 160z"/>
<glyph glyph-name="flechas-horizontales" unicode="&#89;" d="M183 87l-58 57 323 0 0 32-323 0 58 57-23 23-96-96 96-96z m265 265l-96 96-23-23 58-57-323 0 0-32 323 0-58-57 23-23z"/>
<glyph glyph-name="flkt" unicode="&#90;" d="M511 407c-3 5-9 9-15 9-76 0-132-14-176-46l0 94-32 0 0-48-64 0 0 48-32 0 0-94c-44 32-100 46-176 46-6 0-12-4-15-9-2-6-1-13 3-17 27-32 44-65 44-134 0-9 7-16 16-16 44 0 96-21 96-80 0-8 7-15 15-16 7 0 65-6 65-64 0-9 7-16 16-16 9 0 16 7 16 16 0 58 58 64 65 64 8 1 15 8 15 16 0 59 52 80 96 80 9 0 16 7 16 16 0 69 17 102 44 134 4 4 5 11 3 17z m-79-136c-54-5-105-35-111-97-26-5-49-19-65-40-16 21-39 35-65 40-6 62-57 92-111 97 0 40-11 78-31 112 66-4 112-23 148-58 4-5 11-6 17-4 6 3 10 9 10 15l0 48 64 0 0-48c0-6 4-12 10-15 6-2 13-1 17 4 36 35 82 54 148 58-20-34-31-72-31-112z"/>
<glyph glyph-name="grupo" unicode="&#48;" d="M509 31l-34 0 0 51c0 28-23 50-51 50l-67 0c-28 0-51-22-51-50l0-51-34 0 0 51c0 46 38 84 85 84l67 0c47 0 85-38 85-84z m-118 296c28 0 50-23 50-51 0-28-22-51-50-51-29 0-51 23-51 51 0 28 22 51 51 51m0 34c-47 0-85-38-85-85 0-47 38-85 85-85 46 0 84 38 84 85 0 47-38 85-84 85z m-137-201l-34 0 0 50c0 28-23 51-51 51l-67 0c-28 0-51-23-51-51l0-50-34 0 0 50c0 47 38 85 85 85l67 0c47 0 85-38 85-85z m-118 295c28 0 50-23 50-51 0-28-22-50-50-50-29 0-51 22-51 50 0 28 22 51 51 51m0 34c-47 0-85-38-85-85 0-46 38-84 85-84 46 0 84 38 84 84 0 47-38 85-84 85z"/>
<glyph glyph-name="social-github" unicode="&#50;" d="M256 512c-141 0-256-115-256-256 0-113 73-209 175-243 13-2 17 6 17 12l0 48c-71-15-86 30-86 30-12 30-28 38-28 38-24 16 1 15 1 15 26-2 40-26 40-26 22-39 59-28 74-21 2 16 9 27 16 34-57 6-116 28-116 126 0 28 10 51 26 69-3 7-11 33 3 68 0 0 21 7 70-26 20 5 42 8 64 8 22 0 44-3 64-8 49 33 70 26 70 26 14-35 6-61 3-68 16-18 26-41 26-69 0-98-60-120-117-126 10-8 18-23 18-47l0-71c0-6 4-14 17-12 102 34 175 130 175 243 0 141-115 256-256 256z"/>
<glyph glyph-name="social-youtube" unicode="&#52;" d="M418 444c-76 5-248 5-324 0-84-6-93-56-94-188 1-132 10-182 94-188 76-5 248-5 324 0 84 6 93 56 94 188-1 132-10 182-94 188z m-226-273l0 170 171-85z"/>
<glyph glyph-name="informacion" unicode="&#53;" d="M272 160l0 128-64 0 0-32 32 0 0-96-48 0 0-32 128 0 0 32z m-16 224c-13 0-24-11-24-24 0-13 11-24 24-24 13 0 24 11 24 24 0 13-11 24-24 24z m0-352c-124 0-224 100-224 224 0 124 100 224 224 224 124 0 224-100 224-224 0-124-100-224-224-224z m0 416c-106 0-192-86-192-192 0-106 86-192 192-192 106 0 192 86 192 192 0 106-86 192-192 192z"/>
<glyph glyph-name="inicio" unicode="&#54;" d="M266 477c-6 4-14 4-20 0l-230-180 20-25 28 22 0-198c0-18 14-32 32-32l320 0c18 0 32 14 32 32l0 198 28-22 20 25z m-170-381l0 223 160 125 160-125 0-223"/>
<glyph glyph-name="mapa-centro" unicode="&#55;" d="M240 384l32 0 0-96-32 0z m0-160l32 0 0-96-32 0z m48 48l96 0 0-32-96 0z m-160 0l96 0 0-32-96 0z m-64 80l-32 0 0 96c0 18 14 32 32 32l96 0 0-32-96 0z m96-320l-96 0c-18 0-32 14-32 32l0 96 32 0 0-96 96 0z m288 0l-96 0 0 32 96 0 0 96 32 0 0-96c0-18-14-32-32-32z m32 320l-32 0 0 96-96 0 0 32 96 0c18 0 32-14 32-32z"/>
<glyph glyph-name="mapa-generador" unicode="&#56;" d="M71 512c-39 0-71-32-71-71 0-6 2-13 2-18l0-2 16-29 53-94 52 94 16 29 0 2c2 6 3 12 4 18 0 39-32 71-72 71z m0-89c-4 0-9 1-13 5-3 3-5 8-4 13-1 4 1 9 4 13 4 3 9 5 13 4 5 1 10-1 13-4 4-4 5-9 5-13 0-5-1-10-5-13-3-4-8-5-13-5z m404 18l-256 0 0-37 249 0-241-242-190 0 0 58-37 0 0-220 512 0 0 441z m0-388l-151 153 151 152z m-34-16l-287 0 142 143z m-404 88l153 0-88-88-65 0z m241 192c0-18-14-32-32-32-18 0-32 14-32 32 0 18 14 32 32 32 18 0 32-14 32-32z"/>
<glyph glyph-name="maximizar" unicode="&#57;" d="M320 480l0-32 105 0-137-137 23-23 137 137 0-105 32 0 0 160z m-96-279l-23 23-137-137 0 105-32 0 0-160 160 0 0 32-105 0z"/>
<glyph glyph-name="menu" unicode="&#33;" d="M288 384c0-18-14-32-32-32-18 0-32 14-32 32 0 18 14 32 32 32 18 0 32-14 32-32z m0-128c0-18-14-32-32-32-18 0-32 14-32 32 0 18 14 32 32 32 18 0 32-14 32-32z m0-128c0-18-14-32-32-32-18 0-32 14-32 32 0 18 14 32 32 32 18 0 32-14 32-32z"/>
<glyph glyph-name="mexico" unicode="&#34;" d="M91 266l0 15-6 10-36 27 2 2 4 17-9 16-16 45 45 2 41-24 6-2 41-2 11 10 13-1 39-40 18 0 8 8 13-3 30-50 7-6 18-6-8-46 1-8 25-55 7-7 21-9 10 0 38 15 7 8 10 29 29 13 23-2-9-40-20-17-19 3-14-11-2-9 4-11 1-1-8-1-11-10-3-14-26 21-14 1-24-13-120 63-8 12 5 11 1 7-2 22-4 8-38 37 2 4-1 15-47 53-47 30-19-16 16-34 3-12 3-7 14-13 7-17 24-41-6-6z m-13 161l-66-3-12-18 21-63 5-8-7-5-1-22 47-34 0-14 4-8 43-44 18 0 23 23 2 16-28 46-8 19-3 5-13 13-2 8 7-5 39-44-3-5 2-16 42-40 2-15-7-14 1-14 15-20 4-4 130-67 12 0 22 12 35-29 21 8 6 25 23 4 8 22-3 3 9 3 28 23 4 7 14 58-12 16-41 4-6-1-38-16-7-8-10-29-26-11-12 5-21 47 8 53-8 15-24 8-31 51-8 6-26 5-12-3-3-3-33 34-8 4-29 2-12-10-27 1-41 25z"/>
<glyph glyph-name="minimizar" unicode="&#35;" d="M64 224l0-32 105 0-137-137 23-23 137 137 0-105 32 0 0 160z m416 233l-23 23-137-137 0 105-32 0 0-160 160 0 0 32-105 0z"/>
<glyph glyph-name="nivel" unicode="&#36;" d="M360 440l134 0 0-430-134 0z m-171-146l133 0 0-284-133 0z m-172-85l134 0 0-199-134 0z"/>
<glyph glyph-name="numerales" unicode="&#37;" d="M427 427l-342 0c-23 0-42-19-42-42l0-258c0-23 19-42 42-42l342 0c23 0 42 19 42 42l0 258c0 23-19 42-42 42z m0-300l-342 0 0 258 342 0z m-288 161l0-96 24 0 0 128-18 0-38-27 12-19z m106 10c4 0 8-1 12-4 3-3 5-7 5-12 0-9-5-17-12-22-7-8-22-23-45-46l0-22 83 0 0 21-51 0 0 1c14 15 24 24 30 30 12 10 19 24 19 40 1 13-7 25-19 31-13 7-28 7-42 1-10-5-18-14-21-25l21-9c3 9 11 16 20 16z m117-84c-11 0-20 8-22 19l-22-9c5-20 23-33 44-32 15-1 29 6 38 18 7 11 7 26-1 38-3 5-8 9-14 11l0 1c4 3 8 6 11 11 6 10 6 23 0 33-9 11-22 17-35 16-18 1-34-10-40-26l21-9c3 8 10 14 19 14 4 0 8-1 11-4 3-3 4-6 5-10 0-13-12-16-19-16l-10 0 0-21 11 0c12 0 22-5 22-17-1-10-9-17-19-17z"/>
<glyph glyph-name="ojo-ocultar" unicode="&#38;" d="M84 152l23 23c-25 22-45 50-58 81 36 84 116 140 207 144 22 0 43-4 64-12l25 25c-28 12-58 19-89 19-107-4-201-71-239-171-1-3-1-7 0-10 14-38 37-72 67-99z m108 108c2 32 28 57 59 60l29 29c-33 8-68-1-92-25-24-24-34-60-25-93z m303 1c-18 48-50 90-92 119l77 77-23 23-425-425 23-23 81 82c37-22 78-33 120-34 107 4 200 71 239 171 1 3 1 7 0 10z m-175-5c0-23-12-44-32-55-20-11-44-11-64 0l87 87c6-10 9-21 9-32z m-64-144c-34 1-66 9-96 25l41 41c38-27 89-22 122 11 33 33 38 84 11 122l46 46c37-25 66-60 83-101-36-84-116-140-207-144z"/>
<glyph glyph-name="ojo-ver" unicode="&#39;" d="M495 261c-38 100-132 167-239 171-107-4-201-71-239-171-1-3-1-7 0-10 38-100 132-167 239-171 107 4 201 71 239 171 1 3 1 7 0 10z m-239-149c-91 4-171 60-207 144 36 84 116 140 207 144 91-4 171-60 207-144-36-84-116-140-207-144z m0 240c-53 0-96-43-96-96 0-53 43-96 96-96 53 0 96 43 96 96 0 53-43 96-96 96z m0-160c-35 0-64 29-64 64 0 35 29 64 64 64 35 0 64-29 64-64 0-35-29-64-64-64z"/>
<glyph glyph-name="ordenar-alfabetico-asc" unicode="&#40;" d="M229 156l23 23 58-58 0 326 32 0 0-326 58 58 23-23-97-97z m-43 288l-99 0 0-24 74 0-74-123 0-25 99 0 0 25-74 0 74 123z m-25-213l-49 0c-14 0-25-11-25-25l0-147 25 0 0 61 49 0 0-61 25 0 0 147c0 14-11 25-25 25z m-49-86l0 61 49 0 0-61z"/>
<glyph glyph-name="ordenar-alfabetico-desc" unicode="&#41;" d="M229 156l23 23 58-58 0 326 32 0 0-326 58 58 23-23-97-97z m-68 291l-49 0c-14 0-25-11-25-25l0-148 25 0 0 62 49 0 0-62 25 0 0 148c0 14-11 25-25 25z m-49-86l0 61 49 0 0-61z m74-130l-99 0 0-25 74 0-74-123 0-24 99 0 0 24-74 0 74 123z"/>
<glyph glyph-name="ordenar-asc" unicode="&#42;" d="M288 160l23 23 57-58 0 323 32 0 0-323 57 58 23-23-96-96z m-256 64l224 0 0-32-224 0z m64 96l160 0 0-32-160 0z m64 96l96 0 0-32-96 0z"/>
<glyph glyph-name="ordenar-desc" unicode="&#43;" d="M288 160l23 23 57-58 0 323 32 0 0-323 57 58 23-23-96-96z m-256 256l224 0 0-32-224 0z m64-96l160 0 0-32-160 0z m64-96l96 0 0-32-96 0z"/>
<glyph glyph-name="capa-poligono" unicode="&#45;" d="M480 416c0 35-29 64-64 64-34 0-62-26-64-60l-199-40c-13 26-42 41-71 34-29-6-50-31-50-61-1-29 19-56 48-63l0-132c-30-8-51-37-48-68 3-31 27-55 58-58 31-3 60 18 68 48l132 0c7-29 34-49 63-48 30 0 55 21 61 50 7 29-8 58-34 71l40 199c33 2 60 30 60 64z m-64 32c18 0 32-14 32-32 0-18-14-32-32-32-18 0-32 14-32 32 0 18 14 32 32 32z m-352-96c0 18 14 32 32 32 18 0 32-14 32-32 0-18-14-32-32-32-18 0-32 14-32 32z m32-288c-18 0-32 14-32 32 0 18 14 32 32 32 18 0 32-14 32-32 0-18-14-32-32-32z m194 48l-132 0c-6 22-24 40-46 46l0 132c27 7 46 31 48 58l199 40c6-13 16-23 29-29l-40-199c-27-2-51-21-58-48z m62-48c-18 0-32 14-32 32 0 18 14 32 32 32 18 0 32-14 32-32 0-18-14-32-32-32z"/>
<glyph glyph-name="reloj" unicode="&#46;" d="M256 32c-124 0-224 100-224 224 0 124 100 224 224 224 124 0 224-100 224-224 0-124-100-224-224-224z m0 416c-106 0-192-86-192-192 0-106 86-192 192-192 106 0 192 86 192 192 0 106-86 192-192 192z m73-288l-89 89 0 151 32 0 0-137 80-80z"/>
<glyph glyph-name="restar" unicode="&#47;" d="M128 272l256 0 0-32-256 0z"/>
<glyph glyph-name="teclado" unicode="&#58;" d="M448 96l-384 0c-18 0-32 14-32 32l0 224c0 18 14 32 32 32l384 0c18 0 32-14 32-32l0-224c0-18-14-32-32-32m-384 256l0-224 384 0 0 224z m96-160l176 0 0-32-176 0z m-64 128l32 0 0-32-32 0z m64 0l32 0 0-32-32 0z m64 0l32 0 0-32-32 0z m64 0l32 0 0-32-32 0z m-192-128l32 0 0-32-32 0z m0 64l32 0 0-32-32 0z m64 0l32 0 0-32-32 0z m64 0l32 0 0-32-32 0z m128 64l64 0 0-32-64 0z m0-64l64 0 0-32-64 0z m-64 0l32 0 0-32-32 0z m80-64l48 0 0-32-48 0z"/>
<glyph glyph-name="ubicacion" unicode="&#59;" d="M480 272l-97 0c-7 58-53 104-111 111l0 97-32 0 0-97c-58-7-104-53-111-111l-97 0 0-32 97 0c7-58 53-104 111-111l0-97 32 0 0 97c58 7 104 53 111 111l97 0z m-224-112c-53 0-96 43-96 96 0 53 43 96 96 96 53 0 96-43 96-96 0-53-43-96-96-96z"/>
<glyph glyph-name="vista-simplificada" unicode="&#60;" d="M272 112l-176 0 0 32 176 0z m0 96l-176 0 0 32 176 0z m144 96l-320 0 0 32 320 0z m0 96l-320 0 0 32 320 0z m-80-160l80 0 0-32-80 0 0-32 48 0c18 0 32-14 32-32l0-32c0-18-14-32-32-32l-80 0 0 32 80 0 0 32-48 0c-18 0-32 14-32 32l0 32c0 18 14 32 32 32"/>
<glyph glyph-name="voto-si" unicode="&#62;" d="M416 320l-96 0 0 96c0 26-21 48-48 48l-34 0c-16 0-30-12-32-27l-13-95-58-86-103 0 0-224 336 0c62 0 112 50 112 112l0 112c0 35-29 64-64 64z m-288-256l-64 0 0 160 64 0z m320 80c0-44-36-80-80-80l-208 0 0 171 63 95 15 102 34 0c9 0 16-7 16-16l0-128 128 0c18 0 32-14 32-32z"/>
<glyph glyph-name="accesibilidad" unicode="&#63;" d="M256 0c-131 0-241 100-254 230-13 130 75 250 204 275 128 26 256-49 294-174 39-126-24-260-144-311-32-13-66-20-100-20z m0 218l0 0c6 0 8-6 10-10 1-4 3-9 4-13 5-19 10-38 14-54l0 0c2-9 4-17 6-26 2-7 7-12 13-12 1 0 3 0 4 1 7 2 10 8 8 18-1 6-3 12-5 20-2 8-4 17-5 24l0 1c-4 16-8 33-12 50-3 21-5 41-4 62l0 2c0 3 0 7 0 10 0 11 4 16 15 17 21 3 41 6 59 8 4 1 8 3 11 6 2 3 3 7 2 10-1 7-7 12-13 11-1 0-3 0-4 0-16-3-31-5-48-6-18-2-36-3-54-3-22 0-45 1-67 4-11 1-24 3-40 5l0 0c-7 1-13-3-14-10-2-6 2-13 8-15 3-2 6-2 9-3l2 0c11-1 21-3 32-4l4-1c6 0 12-1 17-2 10-1 15-6 15-14 0-20 0-40-2-60-2-15-4-30-8-45l0 0c-1-5-3-10-4-15-2-11-5-23-8-34l0-2c-2-5-3-12-5-18-1-4 0-8 2-11 2-4 6-6 10-6 2 0 3 1 5 1 5 2 8 6 9 12l4 16c3 14 7 29 11 44 3 10 6 21 9 32 2 5 4 10 10 10z m0 191c-8 0-16-3-21-9-6-6-9-13-9-21 0-17 13-31 30-31 17 0 30 14 30 31 0 8-3 15-9 21-5 6-13 9-21 9z"/>
<glyph glyph-name="restablecer" unicode="&#64;" d="M288 64c106 0 192 86 192 192 0 106-86 192-192 192-106 0-192-86-192-192l0-99-58 57-22-22 96-96 96 96-22 22-58-57 0 99c0 88 72 160 160 160 88 0 160-72 160-160 0-88-72-160-160-160z"/>
<glyph glyph-name="flecha-izquierda" unicode="&#91;" d="M224 96l23 23-122 121 323 0 0 32-323 0 122 121-23 23-160-160z"/>
<glyph glyph-name="enlace-externo" unicode="&#93;" d="M358 62l-299 0 0 300 164 0 0 55-194 0c-14 0-29-11-29-29l0-351c0-15 11-30 29-30l355 0c15 0 29 11 29 30l0 212-55 0z m-128 443l0-55 172 0-230-216 36-40 231 216 0-158 55 0 0 253z"/>
<glyph glyph-name="metadatos" unicode="&#94;" d="M368 77l-42 41-22-22 64-64 112 112-22 22z m-176 307c0-9-7-16-16-16-9 0-16 7-16 16 0 9 7 16 16 16 9 0 16-7 16-16z m0-128c0-9-7-16-16-16-9 0-16 7-16 16 0 9 7 16 16 16 9 0 16-7 16-16z m0-128c0-9-7-16-16-16-9 0-16 7-16 16 0 9 7 16 16 16 9 0 16-7 16-16z m192 336l-256 0c-18 0-32-14-32-32l0-352c0-18 14-32 32-32l128 0 0 32-128 0 0 96 288 0 0 256c0 18-14 32-32 32z m0-256l-256 0 0 96 256 0z m0 128l-256 0 0 96 256 0z"/>
<glyph glyph-name="visualizador" unicode="&#95;" d="M480 256c0 123-99 224-224 224-123 0-224-99-224-224 0-125 99-224 224-224 38 0 77 10 110 29l2 0c69 41 112 115 112 195m-414 0c0 16 1 32 6 48l67 0 80-67-30-40c-10-13-8-31 3-42l34-33 0-55c-93 16-160 96-160 189m148-78l48 65-112 93-67 0c43 96 157 138 253 94 11-4 21-11 30-17l-9-29-91 0-48-48 148-133-25-118c-26-13-55-19-83-19l0 70-44 43z m165-69l19 86c4 11 0 23-9 31l-123 110 16 16 76 0c15 0 26 8 31 22l6 18c74-75 74-197 0-270-5-5-8-8-13-12"/>
<glyph glyph-name="zoom-instruccional" unicode="&#96;" d="M343 192c26 31 41 69 41 112 0 97-79 176-176 176-97 0-176-79-176-176 0-97 79-176 176-176 43 0 81 15 112 41l121-121 23 23z m-135-32c-79 0-144 65-144 144 0 79 65 144 144 144 79 0 144-65 144-144 0-79-65-144-144-144z m-48 160l-32 0 0 32c0 18 14 32 32 32l32 0 0-32-32 0z m128 0l-32 0 0 32-32 0 0 32 32 0c18 0 32-14 32-32z m-96-96l-32 0c-18 0-32 14-32 32l0 32 32 0 0-32 32 0z m64 0l-32 0 0 32 32 0 0 32 32 0 0-32c0-18-14-32-32-32z"/>
<glyph glyph-name="angulo-arriba" unicode="&#123;" d="M261 320l112-112-22-22-90 89-89-89-23 22z"/>
<glyph glyph-name="social-instagram" unicode="&#124;" d="M256 466c68 0 76 0 103-2 70-3 102-36 105-105 2-27 2-35 2-103 0-68 0-76-2-103-3-69-35-102-105-105-27-2-35-2-103-2-68 0-76 0-103 2-70 3-102 36-105 105-2 27-2 35-2 103 0 68 0 76 2 103 3 69 35 102 105 105 27 2 35 2 103 2z m0 46c-70 0-78 0-106-2-93-4-144-55-148-148-2-28-2-36-2-106 0-70 0-78 2-106 4-93 55-144 148-148 28-2 36-2 106-2 70 0 78 0 106 2 92 4 144 55 148 148 2 28 2 36 2 106 0 70 0 78-2 106-4 92-55 144-148 148-28 2-36 2-106 2z m0-125c-73 0-131-58-131-131 0-73 58-131 131-131 73 0 131 58 131 131 0 73-58 131-131 131z m0-216c-47 0-85 38-85 85 0 47 38 85 85 85 47 0 85-38 85-85 0-47-38-85-85-85z m137 252c-17 0-31-13-31-30 0-17 14-31 31-31 17 0 30 14 30 31 0 17-13 30-30 30z"/>
<glyph glyph-name="persona" unicode="&#44;" d="M256 448c44 0 80-36 80-80 0-44-36-80-80-80-44 0-80 36-80 80 0 44 36 80 80 80m0 32c-62 0-112-50-112-112 0-62 50-112 112-112 62 0 112 50 112 112 0 62-50 112-112 112z m160-448l-32 0 0 80c0 44-36 80-80 80l-96 0c-44 0-80-36-80-80l0-80-32 0 0 80c0 62 50 112 112 112l96 0c62 0 112-50 112-112z"/>
<glyph glyph-name="correo" unicode="&#126;" d="M255 47c-63 0-126 0-189 0-13 0-26 4-36 12-15 11-26 26-29 44-1 5-1 10-1 15 0 93 0 187 0 281 0 14 5 27 14 38 6 9 15 17 26 22 6 3 13 5 21 6 5 0 10 0 16 0 120 0 241 0 362 0 10 0 20-1 30-5 8-3 14-7 20-13 6-6 12-12 16-20 3-7 5-14 6-21 0-6 1-13 1-19 0-90 0-180 0-269 0-15-3-28-11-40-9-13-20-22-35-27-6-3-14-4-21-4-63 0-126 0-190 0l0 0z m-208 323c0-1 0-1 0-2 0-84 0-168 0-251 0-2 0-4 0-5 2-11 12-19 24-19 123 0 246 0 370 0 2 0 4 0 6 1 12 3 18 12 18 23 0 84 0 167 0 251 0 0 0 1 0 2-3-2-7-5-10-8-9-7-19-15-28-22-10-8-19-16-29-23-8-7-17-14-25-21-9-7-17-13-26-20-9-7-17-14-26-21-8-7-17-14-26-21-8-7-17-13-25-20-7-5-15-7-23-3-5 2-8 6-12 9-7 5-14 11-21 16-7 6-14 11-21 17-10 8-20 16-31 25-8 7-17 14-26 21-8 6-17 13-25 20-8 6-16 12-24 19-6 5-13 10-20 16-6 5-13 11-20 16z m15 47c9-7 17-13 25-20 8-6 15-12 22-17 9-7 18-14 26-21 8-6 16-12 23-19 9-7 18-13 26-20 9-7 18-14 26-21 11-8 21-17 31-25 5-3 9-7 13-10 1-1 3-1 3 0 4 2 8 5 11 8 8 7 16 13 23 19 8 6 16 12 24 19 9 7 17 13 26 20 9 8 19 16 28 23 10 8 19 15 29 23 8 7 17 14 26 21 6 4 12 9 18 14 2 2 5 4 7 6 0 0 0 1 0 1-3 0-6 1-9 1-122 0-245 0-368 0-2 0-4 0-5-1-1 0-3 0-5-1z"/>
<glyph glyph-name="corazon" unicode="&#125;" d="M361 460c-40 0-79-18-105-49-26 31-65 49-105 49-71 2-131-54-133-125-1-74 38-117 68-152l7-8c36-41 149-117 154-120 5-3 13-3 18 0 5 3 118 79 154 120l7 8c30 35 69 78 68 152-2 71-62 127-133 125z"/>
<glyph glyph-name="mover" unicode="&#92;" d="M400 336l-23-23 42-41-147 0 0 147 41-42 23 23-80 80-80-80 23-23 41 42 0-147-147 0 42 41-23 23-80-80 80-80 23 23-42 41 147 0 0-147-41 42-23-23 80-80 80 80-23 23-41-42 0 147 147 0-42-41 23-23 80 80z"/>
<glyph glyph-name="guardar" unicode="&#57344;" d="M443 363l-80 80c-3 3-7 5-11 5l-256 0c-18 0-32-14-32-32l0-320c0-18 14-32 32-32l320 0c18 0 32 14 32 32l0 256c0 4-2 8-5 11z m-251 53l128 0 0-64-128 0z m128-320l-128 0 0 128 128 0z m32 0l0 128c0 18-14 32-32 32l-128 0c-18 0-32-14-32-32l0-128-64 0 0 320 64 0 0-64c0-18 14-32 32-32l128 0c18 0 32 14 32 32l0 57 64-64 0-249z"/>
<glyph glyph-name="bajar-capa" unicode="&#49;" d="M256 448c-106 0-192-86-192-192 0-106 86-192 192-192 106 0 192 86 192 192 0 106-86 192-192 192m0 32c124 0 224-100 224-224 0-124-100-224-224-224-124 0-224 100-224 224 0 124 100 224 224 224z m-5-309l-112 112 22 22 90-90 89 90 23-22z"/>
<glyph glyph-name="subir-capa" unicode="&#51;" d="M256 448c-106 0-192-86-192-192 0-106 86-192 192-192 106 0 192 86 192 192 0 106-86 192-192 192m0 32c124 0 224-100 224-224 0-124-100-224-224-224-124 0-224 100-224 224 0 124 100 224 224 224z m-5-132l112-112-23-23-89 90-90-90-22 23z"/>
<glyph glyph-name="tabla" unicode="&#57345;" d="M448 480l-288 0c-18 0-32-14-32-32l0-48-64 0c-18 0-32-14-32-32l0-304c0-18 14-32 32-32l384 0c18 0 32 14 32 32l0 384c0 18-14 32-32 32z m-288-32l288 0 0-48-288 0z m288-160l-128 0 0 80 128 0z m-288-112l0 80 128 0 0-80z m128-32l0-80-128 0 0 80z m-160 32l-64 0 0 80 64 0z m160 192l0-80-128 0 0 80z m32-112l128 0 0-80-128 0z m-192 112l0-80-64 0 0 80z m-64-224l64 0 0-80-64 0z m256-80l0 80 128 0 0-80z"/>
<glyph glyph-name="social-linkedin" unicode="&#57347;" d="M469 256c0-118-95-213-213-213-118 0-213 95-213 213 0 118 95 213 213 213 57 0 111-22 151-62 40-40 62-94 62-151z m-198 21l0 19c0 3 0 4-4 4l-48 0c-1 0-3 0-3-3l0-158c0-3 0-5 5-5l49 0c3 0 4 0 4 5l0 91c1 7 3 13 8 18 6 8 16 12 26 11 6 0 13-4 17-9 4-5 6-12 6-18l0-92c0-4 0-6 6-6l44 0c5 0 5 0 5 6l0 105c-1 8-3 16-5 23-6 15-17 27-32 32-11 5-23 6-35 5-6 0-12-2-17-5-9-4-16-10-21-18l0-2z m-140-61l0-77c0-5 0-5 5-5l47 0c1 0 3 0 3 3l0 159c0 0 0 1-3 3l-50 0c0 0-2 0-3-3l0-80z m59 134c1 11-5 20-15 23-7 4-16 5-24 3-13-2-22-13-23-26-1-11 5-21 15-25 8-4 16-5 25-3 5 0 11 3 15 7 5 6 8 14 7 21z"/>
<glyph glyph-name="social-x" unicode="&#57348;" d="M43 43c56 64 112 126 167 189-55 79-111 157-167 237l124 0 113-158 141 158 34 0c-12-16-26-31-39-45-14-16-27-31-41-46-13-15-26-30-39-45-14-15-26-30-40-45 57-82 115-163 173-245l-124 0-119 167-148-167-35 0z m375 28l-263 370c-19 4-39 3-57-3 87-122 174-245 260-367l60 0z"/>
<glyph glyph-name="social-twitter" unicode="&#57349;" d="M512 415c-19-9-39-14-60-17 21 13 38 34 46 58-20-12-43-20-67-25-19 20-46 33-77 33-67 0-117-63-102-129-87 4-165 46-216 110-28-47-15-109 32-140-17 0-33 5-47 13-2-49 33-94 84-105-15-4-31-5-48-1 14-42 53-72 99-73-45-35-100-50-156-44 46-30 102-47 161-47 195 0 305 165 299 312 20 15 38 34 52 55z"/>
<glyph glyph-name="social-facebook" unicode="&#57350;" d="M256 469c-112 0-205-86-213-198-8-112 70-211 181-228l0 155-53 0 0 56 53 0 0 38c0 62 30 89 82 89 14 0 29 0 43-2l0-50-35 0c-22 0-29-20-29-44l0-31 64 0-9-56-55 0 0-155c111 15 191 114 184 226-8 113-101 200-213 200z"/>
<glyph glyph-name="adelantar-10" unicode="&#99;" d="M416 224c0-87-73-160-160-160-87 0-160 73-160 160 0 87 73 160 160 160l64 0 0-81 96 96-96 96 0-81-64 0c-107 0-192-85-192-192 0-107 85-192 192-192 107 0 192 85 192 192l-32 0z m-102-66c-7 0-15 2-22 4-6 2-10 7-15 13-4 6-6 13-8 19-2 9-4 17-4 28 0 11 2 17 4 28 2 6 4 15 8 19 5 4 9 8 15 13 7 2 13 4 22 4 12 2 27-4 34-17 8-15 13-30 10-47 3-17-4-32-10-47-7-11-19-19-34-17z m0 19c6 0 12 2 17 9 2 8 6 17 6 23l0 21c0 9-2 17-4 24-7 11-17 11-28 6-2 0-6-2-6-4-5-9-5-17-5-23l0-22c0-8 3-17 5-23 2-7 8-11 15-11z m-143-17l0 19 32 0 0 83-32-15-11 18 36 21 26 0 0-105 30 0 0-21z"/>
<glyph glyph-name="regresar-10" unicode="&#57346;" d="M64 224c0-107 85-192 192-192 107 0 192 85 192 192 0 107-85 192-192 192l-64 0 0 79-96-94 96-98 0 81 64 0c87 0 160-73 160-160 0-87-73-160-160-160-87 0-160 73-160 160z m250-66c-7 0-15 2-22 4-6 2-10 7-15 13-4 6-6 13-8 19-2 9-2 17-2 28 0 8 0 17 2 28 2 6 4 15 8 19 5 4 9 8 15 13 7 2 13 4 22 4 12 0 25-4 34-17 8-15 13-30 10-47 0-17-2-32-10-47-7-11-19-17-34-17z m0 19c6 0 12 2 17 9 4 8 6 15 6 23l0 21c0 9-2 17-4 24-7 8-19 11-28 6-2-2-4-4-6-6-5-9-5-15-5-24l0-21c0-8 3-17 5-23 2-5 8-9 15-9z m-143-17l0 19 32 0 0 83-30-17-9 17 37 22 23 0 0-105 28 0 0-19z"/>
<glyph glyph-name="angulo-abajo" unicode="&#57351;" d="M261 186l-112 112 23 22 89-90 90 90 22-22z"/>
<glyph glyph-name="silenciar" unicode="&#57352;" d="M495 314l-21 23-58-58-58 58-21-23 56-58-56-58 21-23 58 58 58-58 21 23-56 58z m-207-282c-4 0-9 2-11 4l-121 124-107 0c-8 0-17 6-17 17l0 160c0 9 6 17 17 17l107 0 121 122c7 6 17 6 24 0 2-2 4-7 4-11l0-416c-2-11-8-17-17-17z m-224 160l96 0c4 0 9-2 13-4l100-101 0 338-100-101c-4-2-9-4-13-4l-96 0z"/>
<glyph glyph-name="voto-no" unicode="&#61;" d="M480 256l0 112c0 62-50 112-112 112l-336 0 0-224 103 0 58-86 13-95c3-15 16-27 32-27l34 0c27 0 48 21 48 48l0 96 96 0c35 0 64 29 64 64z m-352 32l-64 0 0 160 64 0z m320-32c0-18-14-32-32-32l-128 0 0-128c0-9-7-16-16-16l-34 0-15 102-63 95 0 171 208 0c44 0 80-36 80-80z"/>
<glyph glyph-name="accesibilidad-1" unicode="&#57354;" d="M332 3c-10 0-18 7-21 20-3 11-6 21-8 32l-3 11c-7 26-15 58-23 89-2 8-4 15-7 22-2 7-6 16-16 16l-1 0c-10 0-14-8-16-16-5-18-10-35-15-53-6-23-12-48-18-71l0-1c-3-10-5-19-8-29-1-11-10-20-22-20-7 0-13 3-17 9-4 5-5 12-3 19 3 10 5 20 7 30l1 1c4 19 9 40 14 60 2 8 4 16 5 24l0 0c7 25 12 49 15 74 2 34 3 67 2 100 0 14-8 22-24 24l-14 2c-5 1-10 1-15 2l-13 2c-15 2-31 4-47 6 0 0-1 0-1 0-1 0-1 0-2 0l0 0c-5 1-11 2-15 4-11 4-16 15-13 26 2 11 12 18 22 17 1 0 1 0 2 0 24-4 46-7 66-10 37-4 74-6 111-6 31 0 61 1 91 5 30 3 54 6 79 10 2 1 5 1 7 1 11 1 20-7 21-18 2-6 0-13-3-18-5-5-11-9-18-9-30-5-63-9-98-14-19-2-26-10-25-29 0-7 0-14 0-21-2-34 1-68 7-102 6-30 13-61 20-91l2-9c2-8 4-16 6-25 2-10 5-20 7-30l1-4c4-15-1-26-14-30-2 0-4 0-6 0z m-78 409c-14 0-26 5-36 14-9 9-14 22-15 35 0 14 6 27 15 36 10 10 22 15 36 15 13 0 26-5 35-15 9-9 15-22 15-36 0-13-6-26-15-35-9-9-22-14-35-14z"/>
<glyph glyph-name="enlace-externo-1" unicode="&#57355;" d="M416 64l-320 0c-18 0-32 14-32 32l0 320c0 18 14 32 32 32l160 0 0-32-160 0 0-320 320 0 0 160 32 0 0-160c0-18-14-32-32-32z m-96 416l0-32 105 0-137-137 23-23 137 137 0-105 32 0 0 160z"/>
<glyph glyph-name="flecha-abajo" unicode="&#82;" d="M393 247l-121-122 0 323-32 0 0-323-121 122-23-23 160-160 160 160z"/>
<glyph glyph-name="norte" unicode="&#57356;" d="M131 70c1 9 3 18 7 26 6 16 9 35 16 51 6 16 9 32 16 48 6 16 9 32 16 51 3 13 9 29 12 42 7 19 13 38 16 58 7 19 10 38 16 57 4 13 10 29 13 42 3 13 10 19 19 19 10 0 20-3 20-13l9-29c7-16 10-35 16-51 7-22 13-41 19-64 7-19 13-38 16-57 6-16 10-32 13-48 3-13 10-29 13-42 3-14 8-28 13-42 3-12 6-22 9-35 3-11 1-23-6-32-5-7-14-10-22-6-20 9-39 20-58 32-12 6-24 12-35 19-7 3-10 0-16-3-10-7-21-12-32-16l-32-16c-10-3-16-10-26-13-5-1-11 0-16 3-5 3-8 7-9 13l0 16z m128 349c-35-115-67-230-102-345 14 6 28 13 41 22 17 10 34 18 52 26 6 3 6 3 6 16l0 281z"/>
<glyph glyph-name="filtro" unicode="&#57357;" d="M454 480l-422 0 0-70 32-32 131-132 0-131 32-32 58-57 38 0 0 227 163 163 0 64z m0-51l-160-160-3 0 0-205-64 64 0 131-9 10-154 153 0 26 390 0z"/>
<glyph glyph-name="escribir" unicode="&#57358;" d="M512 481l-51-52 19-19c4-4 7-8 9-13 2-5 3-10 3-15 0-5-1-10-3-15-2-5-5-9-9-13l-354-354-126 0 0 126 358 351c4 3 8 6 13 8 5 2 10 3 15 3 5 0 10-1 15-3 5-2 9-5 13-8l19-20 51 51z m-473-442l71 0 343 343-71 71-343-343z m63 284l150 151 28-28-150-150z"/>
<glyph glyph-name="capas" unicode="&#57359;" d="M115 205c-19 9-38 22-54 32-16 9-16 19 0 29 19 9 37 20 54 32l-48 25c-4 0-8 3-9 7-16 9-16 19 0 28 16 10 35 20 54 29 45 26 90 48 134 74 10 6 23 6 32 0 61-35 122-67 183-103 19-9 19-19 0-32-16-9-35-19-55-28l48-29c4 0 7-3 10-7 13-9 13-16 0-25-15-10-31-19-48-26-3 0-6-3-10-6 16-10 32-19 48-26 4 0 7-1 10-3 13-10 16-19 0-26-13-5-25-13-35-22-51-29-99-58-151-83-9-7-22-7-32 0-60 35-121 70-182 102-16 10-16 19 0 29 16 10 35 19 54 29z m-19 134c54-29 106-61 157-89 6-4 9 0 16 0l105 57c16 10 32 19 52 29-55 29-106 61-160 90l-13 0c-16-10-32-20-51-29-36-19-71-39-106-61z m3-89c2 0 3-2 3-4 52-28 103-57 151-86 6-3 13 0 16 0 29 16 57 32 83 48 22 13 45 26 70 38-16 10-28 16-41 23-5 3-11 3-16 0-32-16-61-35-93-51-9-7-20-7-29 0-32 16-61 35-93 51-4 3-11 3-16 0-12-7-25-16-41-23z m-3-90c54-29 106-61 157-90l13 0c32 20 67 36 99 55 19 9 38 22 57 32-16 9-28 16-41 22-5 3-11 3-16 0-32-16-61-35-93-51-9-6-20-6-29 0-32 16-61 35-93 51l-12 0c-16-7-31-16-45-25z"/>
<glyph glyph-name="alerta" unicode="&#57360;" d="M256 144c-13 0-24-11-24-24 0-13 11-24 24-24 13 0 24 11 24 24 0 13-11 24-24 24z m-16 176l32 0 0-144-32 0z m224-288l-416 0c-6 0-11 3-14 8-3 4-3 10 0 15l208 400c3 6 8 9 14 9 6 0 11-3 14-9l208-400c3-5 3-11 0-15-3-5-8-8-14-8z m-390 32l364 0 0 0-182 349 0 0-182-349z"/>
<glyph glyph-name="volumen" unicode="&#57353;" d="M433 384l-23-21c51-62 49-152-5-212l24-23c64 73 66 181 4 256z m-90-62c32-36 30-92-2-128l24-21c45 47 45 119 4 168z m-57-288c-4 0-9 2-11 4l-121 124-107 0c-9 0-17 7-17 17l0 158c0 9 6 17 17 17l107 0 121 124c7 6 17 6 24 0 2-2 4-7 4-11l0-416c0-10-6-17-17-17z m-224 160l98 0c4 0 9-2 11-4l100-100 0 337-100-101c-2-4-7-4-11-4l-98 0z"/>
<glyph glyph-name="bot" unicode="&#57361;" d="M416 192l-80 0 0 32 16 0c18 0 32 14 32 32l0 64 32 0 0 32-32 0 0 32c0 18-14 32-32 32l-32 0 0 64-32 0 0-64-64 0 0 64-32 0 0-64-32 0c-18 0-32-14-32-32l0-32-32 0 0-32 32 0 0-64c0-18 14-32 32-32l16 0 0-32-80 0c-18 0-32-14-32-32l0-128 32 0 0 128 320 0 0-128 32 0 0 128c0 18-14 32-32 32z m-256 192l192 0 0-128-192 0z m48-160l96 0 0-32-96 0z m112 128l-32 0 0-32 32 0z m-96 0l-32 0 0-32 32 0z"/>
<glyph glyph-name="cerrar-sesion" unicode="&#57362;" d="M96 32l192 0c8 0 17 3 23 9 6 6 9 15 9 23l0 48-32 0 0-48-192 0 0 384 192 0 0-48 32 0 0 48c0 8-3 17-9 23-6 6-15 9-23 9l-192 0c-8 0-17-3-23-9-6-6-9-15-9-23l0-384c0-8 3-17 9-23 6-6 15-9 23-9z m233 151l58 57-227 0 0 32 227 0-58 57 23 23 96-96-96-96z"/>
<glyph glyph-name="chat" unicode="&#57363;" d="M284 48l-28 16 64 112 96 0c18 0 32 14 32 32l0 192c0 18-14 32-32 32l-320 0c-18 0-32-14-32-32l0-192c0-18 14-32 32-32l144 0 0-32-144 0c-35 0-64 29-64 64l0 192c0 35 29 64 64 64l320 0c35 0 64-29 64-64l0-192c0-35-29-64-64-64l-77 0-55-96z m100 320l-256 0 0-32 256 0z m-96-96l-160 0 0-32 160 0z"/>
<glyph glyph-name="explorar" unicode="&#57364;" d="M256 32c-124 0-224 100-224 224 0 124 100 224 224 224 124 0 224-100 224-224 0-124-100-224-224-224z m0 416c-106 0-192-86-192-192 0-106 86-192 192-192 106 0 192 86 192 192 0 106-86 192-192 192z m107-85c-4 5-10 6-16 4l-144-48c-5-1-8-5-10-10l-48-144c-2-6-1-12 4-16 3-3 7-5 11-5 2 0 4 0 5 1l144 48c5 2 9 5 10 10l48 144c2 6 1 12-3 16z m-178-178l36 106 70-70z"/>
<glyph glyph-name="ia" unicode="&#57365;" d="M144 172l0 28 14 0 0 98-14 0 0 28 56 0 0-28-14 0 0-98 14 0 0-28z m187 0l28 0-49 154-42 0-49-154 28 0 8 28 67 0z m-67 56l22 76 4 0 23-76z m216 196l-56 0 0 56-28 0 0-56-56 0 0-28 56 0 0-56 28 0 0 56 56 0z m0-112l-28 0 0-28 28 0z m-168 168l-28 0 0-28 28 0z m168-448l-448 0 0 448 196 0 0-28-168 0 0-392 392 0 0 168 28 0z"/>
<glyph glyph-name="limpiar" unicode="&#57366;" d="M400 208l0 32c0 18-14 32-32 32l-64 0 0 176c0 18-14 32-32 32l-32 0c-18 0-32-14-32-32l0-176-64 0c-18 0-32-14-32-32l0-32c-18 0-32-14-32-32l0-144 352 0 0 144c0 18-14 32-32 32z m-160 240l32 0 0-176-32 0z m-96-208l224 0 0-32-224 0z m256-176l-32 0 0 80-32 0 0-80-32 0 0 80-32 0 0-80-32 0 0 80-32 0 0-80-32 0 0 80-32 0 0-80-32 0 0 112 288 0z"/>
<glyph glyph-name="previsualizar" unicode="&#57367;" d="M256 170c19 0 34 15 34 34 0 19-15 35-34 35-19 0-34-16-34-35 0-19 15-34 34-34z m134 43c-11 27-29 51-53 68-24 16-52 26-81 27-29-1-57-11-81-27-24-17-42-41-53-68l-4-9 4-9c11-27 29-50 53-67 24-17 52-26 81-27 29 1 57 10 81 27 24 17 42 40 53 67l4 9z m-134-78c-14 0-27 4-38 12-12 8-20 18-26 31-5 13-6 26-4 40 3 13 10 25 19 35 10 10 22 16 36 19 13 3 27 1 39-4 13-5 24-14 31-25 8-12 12-25 12-39 0-18-7-35-20-48-13-13-31-21-49-21z m190 345l-380 0c-9 0-17-4-24-10-6-7-10-15-10-24l0-380c0-9 4-17 10-24 7-6 15-10 24-10l380 0c9 0 17 4 24 10 6 7 10 15 10 24l0 380c0 9-4 17-10 24-7 6-15 10-24 10z m-380-34l380 0 0-69-380 0z m0-380l0 276 380 0 0-276z"/>
<glyph glyph-name="privado" unicode="&#57368;" d="M384 288l-32 0 0 96c0 53-43 96-96 96-53 0-96-43-96-96l0-96-32 0c-18 0-32-14-32-32l0-192c0-18 14-32 32-32l256 0c18 0 32 14 32 32l0 192c0 18-14 32-32 32z m-192 96c0 35 29 64 64 64 35 0 64-29 64-64l0-96-128 0z m192-320l-256 0 0 192 256 0z"/>
<glyph glyph-name="proyectos" unicode="&#57369;" d="M448 368l-165 0-64 48-123 0 0 32 123 0c7 0 13-2 19-6l55-42 155 0 0-32z m-32-304l-320 0c-18 0-32 14-32 32l0 240c0 18 14 32 32 32l91 0c7 0 13-2 19-6l55-42 155 0c18 0 32-14 32-32l0-192c0-18-14-32-32-32z m-229 272l-91 0 0-240 320 0 0 192-165 0z"/>
<glyph glyph-name="reporte" unicode="&#57370;" d="M288 224l-128 0 0-32 128 0z m64 80l-192 0 0-32 192 0z m-112-160l-80 0 0-32 80 0z m160 288l-48 0 0 16c0 18-14 32-32 32l-128 0c-18 0-32-14-32-32l0-16-48 0c-18 0-32-14-32-32l0-336c0-18 14-32 32-32l288 0c18 0 32 14 32 32l0 336c0 18-14 32-32 32z m-208 16l128 0 0-64-128 0z m208-384l-288 0 0 336 48 0 0-48 192 0 0 48 48 0z"/>
<glyph glyph-name="localizacion" unicode="&#57371;" d="M256 224c-16 0-31 5-44 13-14 9-24 22-30 36-6 15-8 31-4 47 3 15 10 29 21 41 12 11 26 18 41 21 16 4 32 2 47-4 14-6 27-16 36-30 8-13 13-28 13-44 0-21-8-42-23-57-15-15-36-23-57-23z m0 128c-9 0-19-3-27-8-8-5-14-13-17-22-4-8-5-18-3-27 2-10 6-18 13-25 7-7 15-11 25-13 9-2 19-1 27 3 9 3 17 9 22 17 5 8 8 18 8 27 0 13-5 25-14 34-9 9-21 14-34 14z m0-320l-135 159c-1 1-6 7-6 7-23 31-35 68-35 106 0 47 19 91 52 124 33 33 77 52 124 52 47 0 91-19 124-52 33-33 52-77 52-124 0-38-12-75-35-106l0 0c0 0-5-6-6-7z m-115 186c0 0 4-5 5-6l110-131 111 131c0 1 4 6 4 6 19 25 29 55 29 86 0 38-15 75-42 102-27 27-64 42-102 42-38 0-75-15-102-42-27-27-42-64-42-102 0-31 10-61 29-86z"/>
</font>
</defs>
</svg>
